<?xml version="1.0" encoding="utf-8"?>
<!-- Generator: Adobe Illustrator 24.1.3, SVG Export Plug-In . SVG Version: 6.00 Build 0)  -->
<svg version="1.1" id="Layer_1" xmlns="http://www.w3.org/2000/svg" xmlns:xlink="http://www.w3.org/1999/xlink" x="0px" y="0px"
	 viewBox="0 0 250.6 250.6" style="enable-background:new 0 0 250.6 250.6;" xml:space="preserve">
<style type="text/css">
	.st0{fill:#1B1464;}
	.st1{fill:#86D5FF;}
	.st2{fill:#007CF4;}
	.st3{font-family:'OCRAExtended';}
	.st4{font-size:35.8416px;}
	.st5{fill:#993310;}
</style>
<path class="st0" d="M8.8,189.4c11.4-79,9.9-116.8,5.7-136.2c0,0-3-13.1,0-14.2c4.4-1.6,13.4,34.4,36.9,39.8
	c7.5,1.7,18.5,0.7,22.7-5.7C83.9,58,44.2,27.4,51.5,13.3C63.1-9,186.8,32,184.8,41.8c-1.3,6.8-63.7-9.5-79.6,17
	c-9.8,16.4,2.7,41.4-5.7,45.4c-6.3,3-12.8-11.1-25.5-11.4c-17.6-0.4-31.8,26-45.3,51.1C20.7,158.4,14.1,173.7,8.8,189.4z"/>
<path class="st1" d="M242.8,242.5c-50.6-58.2-79.1-81.1-96.1-90.2c0,0-11.5-6.2-10.4-9c1.6-4.2,33.6,12,52.4-1.9
	c6-4.4,12.2-13.2,10.2-20.2c-4.9-16.9-52.4-7-57.8-21c-9.1-22.7,99.2-87.3,105-79.6c4,5.3-47.1,40.5-37.7,68.9
	c5.8,17.5,31.8,24.2,29.6,32.8c-1.7,6.5-16.2,2.3-24.4,11.6c-11.4,12.6-1.2,39.8,8.7,65.5C228,214.3,234.8,228.7,242.8,242.5z"/>
<text transform="matrix(1 0 0 1 17.3525 199.3887)" class="st2 st3 st4">MONGO</text>
<text transform="matrix(1 0 0 1 125.627 199.3887)" class="st5 st3 st4">DB</text>
<text transform="matrix(1 0 0 1 17.3525 231.249)" class="st2 st3 st4">ENTITIES</text>
</svg>
