<svg id="Layer_1" data-name="Layer 1" xmlns="http://www.w3.org/2000/svg" viewBox="0 0 64 64"><defs><style>.cls-1{fill:#1b1464;}.cls-2{fill:#86d5ff;}.cls-3{font-size:9px;fill:#007cf4;font-family:OCRAExtended, OCR A Extended;}</style></defs><title>Artboard 1</title><path class="cls-1" d="M4.5,49C7.36,29.18,7,19.69,5.92,14.81c0,0-.74-3.3,0-3.57,1.11-.4,3.37,8.65,9.27,10,1.9.43,4.66.16,5.69-1.43,2.48-3.81-7.51-11.48-5.69-15,2.92-5.62,34,4.69,33.48,7.13-.35,1.71-16-2.4-20,4.27-2.47,4.12.68,10.39-1.42,11.4-1.57.75-3.21-2.79-6.42-2.85-4.42-.09-8,6.53-11.39,12.82A74,74,0,0,0,4.5,49Z"/><path class="cls-2" d="M62.53,63.81C49.83,49.19,42.68,43.44,38.4,41.16c0,0-2.88-1.54-2.61-2.25.41-1.07,8.46,3,13.16-.48,1.51-1.12,3.07-3.31,2.56-5.07C50.28,29.13,38.36,31.6,37,28.08c-2.27-5.7,24.91-21.91,26.37-20,1,1.33-11.83,10.16-9.47,17.3,1.46,4.41,8,6.07,7.44,8.24-.44,1.63-4.06.59-6.13,2.9-2.86,3.18-.28,10,2.18,16.44A72,72,0,0,0,62.53,63.81Z"/><text class="cls-3" transform="translate(5.67 49.83)"><tspan xml:space="preserve"> MONGO</tspan><tspan x="0" y="8">ENTITIES</tspan></text></svg>